<svg width="58" height="92" viewBox="0 0 58 92" fill="none" xmlns="http://www.w3.org/2000/svg">
<g clip-path="url(#clip0)">
<path d="M29.1741 91.5326C35.6141 91.5326 51.9641 89.8526 56.6441 67.4226C62.2141 40.7126 43.7641 42.0527 43.7641 21.2227C43.7641 17.5727 43.3141 14.1727 42.5741 11.0627C39.2641 -2.89735 19.0841 -2.89735 15.7741 11.0627C15.0341 14.1827 14.5841 17.5727 14.5841 21.2227C14.5841 42.0627 -3.86588 40.7126 1.70412 67.4226C6.38412 89.8526 22.7341 91.5326 29.1741 91.5326Z" fill="#456D41"/>
<path d="M29.1745 87.5927C13.2745 87.5927 7.56452 76.1827 5.56452 66.6227C2.79452 53.3127 6.47452 48.2327 10.7345 42.3627C14.3845 37.3327 18.5245 31.6227 18.5245 21.2227C18.5245 18.1027 18.8845 14.9927 19.6045 11.9727C20.9045 6.48265 25.5745 4.53265 29.1645 4.53265C32.7645 4.53265 37.4245 6.48265 38.7245 11.9727C39.4445 14.9927 39.8045 18.1127 39.8045 21.2227C39.8045 31.6227 43.9445 37.3327 47.5945 42.3627C51.8545 48.2327 55.5345 53.3127 52.7645 66.6227C50.7945 76.1827 45.0745 87.5927 29.1745 87.5927Z" fill="#CFE8B8"/>
<path d="M43.1146 64.7826C43.1146 71.1726 37.9346 76.3526 31.5446 76.3526C25.1546 76.3526 19.9746 71.1726 19.9746 64.7826C19.9746 58.3926 25.1546 49.5026 31.5446 49.5026C37.9346 49.5026 43.1146 58.3926 43.1146 64.7826Z" fill="#B3CC9A"/>
<path d="M40.7435 63.6626C40.7435 70.0526 35.5635 75.2326 29.1735 75.2326C22.7835 75.2326 17.6035 70.0526 17.6035 63.6626C17.6035 57.2726 22.7835 48.3826 29.1735 48.3826C35.5635 48.3826 40.7435 57.2726 40.7435 63.6626Z" fill="#6B4E2F"/>
<path d="M33.6938 49.8727C36.6838 53.0427 38.6538 57.9227 38.6538 61.8527C38.6538 68.2427 33.4738 73.4227 27.0838 73.4227C24.7138 73.4227 22.5138 72.7027 20.6738 71.4827C22.7838 73.7827 25.8138 75.2327 29.1838 75.2327C35.5738 75.2327 40.7538 70.0527 40.7538 63.6627C40.7438 58.8727 37.8338 52.6727 33.6938 49.8727Z" fill="#563C24"/>
<path d="M27.5941 53.6626C26.6741 53.1226 25.6541 53.2026 24.7241 53.6626C24.1841 53.9326 23.7341 54.3126 23.2641 54.6926C22.4241 55.3726 22.1141 56.8426 22.4341 57.8426C22.6941 58.6426 23.1741 59.3426 23.9241 59.7726C24.6441 60.1926 25.6041 60.3226 26.4141 60.1026C27.5541 59.7926 28.3041 58.9326 28.6741 57.8426C28.8641 57.2826 28.9341 56.7126 28.9941 56.1226C29.1141 55.1626 28.3841 54.1326 27.5941 53.6626Z" fill="#967259"/>
<path d="M47.6132 42.3527C43.9632 37.3227 39.8232 31.6127 39.8232 21.2127C39.8232 18.0927 39.4632 14.9827 38.7432 11.9627C37.5932 7.12267 33.8432 5.04267 30.5032 4.61267C32.8832 5.66267 35.0332 7.71267 35.8532 11.1627C36.5732 14.1827 36.9332 17.3027 36.9332 20.4127C36.9332 30.8127 41.0732 36.5227 44.7232 41.5527C48.9832 47.4227 52.6632 52.5027 49.8932 65.8127C47.9032 75.3827 42.1832 86.7827 26.2832 86.7827C24.1932 86.7827 22.2832 86.5827 20.5332 86.2227C23.0132 87.0927 25.8732 87.5827 29.1732 87.5827C45.0732 87.5827 50.7832 76.1727 52.7832 66.6127C55.5632 53.3027 51.8732 48.2327 47.6132 42.3527Z" fill="#B3CC9A"/>
</g>
<defs>
<clipPath id="clip0">
<rect width="57.03" height="90.95" fill="white" transform="translate(0.664062 0.582642)"/>
</clipPath>
</defs>
</svg>
