<svg width="101" height="124" viewBox="0 0 101 124" fill="none" xmlns="http://www.w3.org/2000/svg">
<path d="M45.5728 0.679037C32.8396 0.421044 20.0814 5.33956 10.8186 14.078C5.94172 18.672 1.91369 24.5143 0.923334 31.1472C-0.141928 38.2378 2.32149 45.3119 3.8528 52.311C6.20803 63.0551 6.3828 74.2737 4.37711 85.0844C3.25359 91.1181 1.45596 97.0769 1.29784 103.219C1.13972 109.352 2.9207 115.944 7.69773 119.797C13.848 124.757 23.2356 123.667 29.8768 119.381C36.5181 115.095 41.0538 108.304 45.423 101.721C49.7922 95.1378 54.3862 88.3634 61.0857 84.1773C68.4926 79.55 77.6971 78.5846 85.2788 74.2487C95.4321 68.448 101.657 56.4222 100.534 44.7792C99.2603 31.6049 89.3567 24.5309 80.5434 16.0754C71.0059 6.91249 58.9884 0.953675 45.5728 0.679037Z" fill="white"/>
<path d="M12.9902 115.278C12.6074 115.07 12.2495 114.828 11.9166 114.562C9.34499 112.482 7.88025 108.312 8.01341 103.394C8.11328 99.6901 8.94552 95.8701 9.83601 91.8171C10.2272 90.0361 10.635 88.1886 10.9845 86.316C13.14 74.6897 12.9486 62.4309 10.4186 50.8794C10.094 49.3814 9.72782 47.8917 9.35331 46.3854C8.10496 41.2837 6.91486 36.4651 7.564 32.1375C8.39624 26.5781 12.2994 21.901 15.4203 18.9632C23.4514 11.3898 34.3953 7.17871 45.4307 7.39509C52.1053 7.52825 58.605 9.30924 64.7719 12.6798C68.6834 14.8186 72.4202 17.59 75.8823 20.9189C77.1972 22.1839 78.5371 23.4156 79.8687 24.6473C86.9094 31.1305 92.993 36.7231 93.8336 45.4283C94.7074 54.458 89.8139 63.9122 81.9326 68.423C78.9033 70.154 75.3413 71.3191 71.563 72.5425C66.9024 74.0572 62.0755 75.6301 57.5148 78.4764C49.4005 83.5447 44.0825 91.5591 39.8131 98.0006C35.8434 103.984 31.7405 110.176 26.2227 113.73C21.8951 116.535 16.444 117.175 12.9902 115.278C12.9985 115.286 12.9985 115.286 12.9902 115.278Z" fill="#AA1F1F"/>
<path d="M67.9007 27.1691C69.6651 27.993 71.4461 28.9917 72.528 30.6062C73.6015 32.2291 73.7264 34.6343 72.3116 35.9742C70.8302 37.3723 68.425 37.0477 66.5608 36.2155C64.7049 35.3833 62.9656 34.1349 60.9432 33.9019C58.4216 33.6106 55.9332 35.0088 54.277 36.9312C52.6209 38.8537 51.6305 41.2589 50.6734 43.6141C48.2184 49.6644 45.7549 55.7231 43.2998 61.7735C42.5175 63.6959 40.928 66.0179 38.9722 65.3271C37.2994 64.7362 37.133 62.4559 37.3826 60.6999C37.9236 56.8883 38.9889 53.1515 40.5368 49.6395C42.5591 45.0539 45.3887 39.611 42.6008 35.4415C38.7974 29.774 23.476 24.0898 39.4466 22.8831C49.2919 22.1341 58.8543 22.9247 67.9007 27.1691Z" fill="#931919"/>
<path d="M64.9984 23.657C66.7627 24.4809 68.5437 25.4796 69.6256 27.0941C70.6992 28.717 70.824 31.1221 69.4092 32.462C67.9279 33.8602 65.5227 33.5356 63.6585 32.7034C61.8026 31.8711 60.0632 30.6228 58.0409 30.3898C55.5192 30.0985 53.0308 31.4966 51.3747 33.4191C49.7185 35.3416 48.7282 37.7467 47.7711 40.102C45.316 46.1523 42.8526 52.211 40.3975 58.2613C39.6152 60.1838 38.0256 62.5058 36.0699 61.815C34.3971 61.2241 34.2306 58.9438 34.4803 57.1878C35.0212 53.3761 36.0865 49.6394 37.6345 46.1273C39.6568 41.5417 42.4864 36.0989 39.6984 31.9294C35.8951 26.2619 20.5736 20.5777 36.5442 19.371C46.3896 18.6303 55.952 19.4209 64.9984 23.657Z" fill="white"/>
<path d="M93.845 45.4283C93.2375 39.1616 89.9085 34.5011 85.4644 29.9654C87.9445 33.2444 89.6672 36.8064 90.0833 41.134C90.9572 50.1638 86.0636 59.618 78.1823 64.1287C75.153 65.8597 71.591 67.0249 67.8127 68.2482C63.1521 69.7629 58.3252 71.3358 53.7645 74.1821C45.6502 79.2504 40.3322 87.2648 36.0629 93.7063C32.0931 99.6901 27.9902 105.882 22.4724 109.436C18.1864 112.199 12.8268 112.856 9.37305 111.058C10.0222 112.515 10.8711 113.722 11.9197 114.571C12.2526 114.837 12.6104 115.078 12.9933 115.286C16.4471 117.175 21.8899 116.535 26.2341 113.738C31.7436 110.185 35.8548 103.993 39.8246 98.009C44.0939 91.5675 49.4119 83.5531 57.5262 78.4848C62.0869 75.6385 66.9138 74.0656 71.5744 72.5509C75.3444 71.3192 78.9147 70.1624 81.944 68.4313C89.8253 63.9123 94.7189 54.4581 93.845 45.4283Z" fill="#931919"/>
</svg>
